<svg xmlns="http://www.w3.org/2000/svg" viewBox="0 0 500 266.75"><defs><style>.cls-1{fill:#fff;}</style></defs><g id="Camada_2" data-name="Camada 2"><g id="Camada_1-2" data-name="Camada 1"><path class="cls-1" d="M47.51,95.81,28,207.24H0L19.66,95.81Z"/><path class="cls-1" d="M178.44,187.43a12.76,12.76,0,0,0,6.35-1.55L184,203.37a25.23,25.23,0,0,1-16.56,6q-21,0-21-17.65a38.2,38.2,0,0,1,.62-6.65l3.25-19a33.67,33.67,0,0,0,.46-5.57q0-7.42-8.13-7.43a15,15,0,0,0-12.76,6.35l-8.36,47.82H95.18l7.27-41.17a33.68,33.68,0,0,0,.47-5.57q0-7.42-8.36-7.43a15.14,15.14,0,0,0-11.45,5.11l-8.67,49.06H48.13L61.29,132.8H85.74L84,142.08q9.28-11.45,23.52-11.45,20.11,0,22.91,13.31,9.28-13.31,24.84-13.31t20.19,7a18.94,18.94,0,0,1,3.1,10.52,62.92,62.92,0,0,1-.78,10.37L174,181.55a9.79,9.79,0,0,0-.16,1.7Q173.8,187.44,178.44,187.43Z"/><path class="cls-1" d="M240.19,130.63q16.73,0,25.23,7.27,6.65,5.73,6.66,15.95a39.13,39.13,0,0,1-.78,7.42l-3.25,18.11q-2.94,16.41-13.7,23.22t-28.7,6.81q-18,0-26.31-6.81-6.19-5.11-6.2-15.32a44.91,44.91,0,0,1,.78-7.9l3.25-18.11Q202.59,130.64,240.19,130.63Zm4.18,33.74a20.43,20.43,0,0,0,.31-4,9.73,9.73,0,0,0-2-5.34c-1.34-2-3.69-2.94-7-2.94a11.59,11.59,0,0,0-8.44,3.33,15.66,15.66,0,0,0-4.33,8.9l-2,11.61a20.39,20.39,0,0,0-.31,3.94,9.07,9.07,0,0,0,2,5.19c1.34,1.86,3.69,2.78,7,2.78a11.35,11.35,0,0,0,8.44-3.48,16.06,16.06,0,0,0,4.33-8.43Z"/><path class="cls-1" d="M334.29,130.63q15.31,0,21.51,8.51a23.4,23.4,0,0,1,4.65,14.71,37.46,37.46,0,0,1-.78,7.42l-3.09,17.34q-2.64,14.85-13.7,22.83t-27.86,8q-16.78,0-25.77-6.66-7.11-5.25-7.12-14.7a29.44,29.44,0,0,1,.47-5.11L299,89.77h26.31l-7.89,45Q323.91,130.63,334.29,130.63Zm-1.39,33a31,31,0,0,0,.15-3.49,8.09,8.09,0,0,0-1.93-4.79q-1.94-2.56-8.36-2.56t-9.21,3.87l-4.49,25.85q1.86,4.64,7.74,4.64,11.93,0,14.09-11.92Z"/><path class="cls-1" d="M340.13,266.75q-37.31,0-37.3-27.09a47.31,47.31,0,0,1,.93-9l2-11.46h27.86l-.93,5.11a50.2,50.2,0,0,0-.62,7.89,10.64,10.64,0,0,0,2,6.66q3.11,3.87,10.22,3.87t11.53-3.87q4.41-3.87,6.27-14.24L374.8,153h27.7l-13,73.83Q385.93,247.4,374,257.07T340.13,266.75Z"/><path class="cls-1" d="M433.3,232.85q0,10.68,15.4,10.68t15.39-9.59q0-5.12-5.26-8.36a51.42,51.42,0,0,0-12.77-5.42q-7.5-2.16-15-5a31.43,31.43,0,0,1-12.77-9Q413,200,413,190.91q0-38.83,50-38.84,18.25,0,27.63,6.88T500,178.07a31.59,31.59,0,0,1-1.16,8.59,19.22,19.22,0,0,1-2.4,5.8l-1.24,1.86H467.81a12.48,12.48,0,0,0,3.4-9q0-10.07-13.15-10.06-16.56,0-16.56,10.52,0,5.26,5.26,8.36A46,46,0,0,0,459.53,199a152.68,152.68,0,0,1,15.09,4.41,29.35,29.35,0,0,1,12.84,8.74q5.27,6.12,5.27,15.87,0,19.65-11.77,29.17t-36.21,9.52q-24.45,0-33.43-8.67-6.66-6.49-6.66-17.95a52.9,52.9,0,0,1,.93-9.44l.47-2.48h27.86l-.31,1.86A14,14,0,0,0,433.3,232.85Z"/><circle class="cls-1" cx="282.13" cy="254.4" r="12.09"/><rect class="cls-1" x="234.71" y="-13.05" width="28.01" height="156.73" transform="translate(119.03 -156.74) rotate(45)"/><rect class="cls-1" x="325.73" y="-13.05" width="28.01" height="156.73" transform="translate(53.32 259.36) rotate(-45)"/></g></g></svg>