<?xml version="1.0" encoding="UTF-8" standalone="no"?>
<!DOCTYPE svg PUBLIC "-//W3C//DTD SVG 1.1//EN" "http://www.w3.org/Graphics/SVG/1.1/DTD/svg11.dtd">
<svg width="100%" height="100%" viewBox="0 0 789 255" version="1.1" xmlns="http://www.w3.org/2000/svg" xmlns:xlink="http://www.w3.org/1999/xlink" xml:space="preserve" xmlns:serif="http://www.serif.com/" style="fill-rule:evenodd;clip-rule:evenodd;stroke-linejoin:round;stroke-miterlimit:2;">
    <g transform="matrix(1,0,0,1,-5.62098,-47.8137)">
        <g transform="matrix(29.2786,0,0,29.2786,-2601.44,-6112.9)">
            <g transform="matrix(12,0,0,12,88.7908,219.033)">
                <path d="M0.051,0L0.021,-0.712L0.153,-0.712L0.153,0L0.051,0Z" style="fill:rgb(90,65,65);fill-rule:nonzero;"/>
            </g>
            <g transform="matrix(12,0,0,12,91.2388,219.033)">
                <path d="M0.042,0L0.042,-0.507L0.144,-0.507L0.144,-0.458L0.146,-0.458C0.157,-0.474 0.169,-0.487 0.185,-0.498C0.2,-0.508 0.219,-0.513 0.242,-0.513C0.264,-0.513 0.282,-0.508 0.297,-0.497C0.312,-0.486 0.324,-0.475 0.333,-0.462C0.346,-0.476 0.36,-0.488 0.375,-0.498C0.39,-0.508 0.412,-0.513 0.439,-0.513C0.452,-0.513 0.465,-0.511 0.478,-0.507C0.491,-0.502 0.503,-0.495 0.514,-0.485C0.525,-0.475 0.533,-0.462 0.54,-0.447C0.547,-0.431 0.55,-0.412 0.55,-0.389L0.55,0L0.448,0L0.448,-0.351C0.448,-0.37 0.444,-0.384 0.435,-0.395C0.426,-0.406 0.414,-0.411 0.398,-0.411C0.379,-0.411 0.365,-0.405 0.358,-0.393C0.351,-0.381 0.347,-0.364 0.347,-0.341L0.347,0L0.245,0L0.245,-0.351C0.245,-0.37 0.241,-0.384 0.232,-0.395C0.223,-0.406 0.211,-0.411 0.195,-0.411C0.176,-0.411 0.162,-0.405 0.155,-0.393C0.148,-0.381 0.144,-0.364 0.144,-0.341L0.144,0L0.042,0Z" style="fill:rgb(90,65,65);fill-rule:nonzero;"/>
            </g>
            <g transform="matrix(12,0,0,12,98.3428,219.033)">
                <path d="M0.033,-0.337C0.033,-0.358 0.034,-0.377 0.037,-0.394C0.04,-0.411 0.045,-0.427 0.052,-0.44C0.064,-0.462 0.081,-0.48 0.104,-0.493C0.126,-0.506 0.153,-0.513 0.185,-0.513C0.217,-0.513 0.244,-0.506 0.267,-0.493C0.289,-0.48 0.306,-0.462 0.318,-0.44C0.325,-0.427 0.33,-0.411 0.333,-0.394C0.336,-0.377 0.337,-0.358 0.337,-0.337L0.337,-0.17C0.337,-0.149 0.336,-0.13 0.333,-0.113C0.33,-0.096 0.325,-0.08 0.318,-0.067C0.306,-0.045 0.289,-0.027 0.267,-0.014C0.244,-0.001 0.217,0.006 0.185,0.006C0.153,0.006 0.126,-0.001 0.104,-0.014C0.081,-0.027 0.064,-0.045 0.052,-0.067C0.045,-0.08 0.04,-0.096 0.037,-0.113C0.034,-0.13 0.033,-0.149 0.033,-0.17L0.033,-0.337ZM0.135,-0.154C0.135,-0.135 0.139,-0.12 0.149,-0.111C0.158,-0.101 0.17,-0.096 0.185,-0.096C0.2,-0.096 0.213,-0.101 0.222,-0.111C0.231,-0.12 0.235,-0.135 0.235,-0.154L0.235,-0.353C0.235,-0.372 0.231,-0.387 0.222,-0.397C0.213,-0.406 0.2,-0.411 0.185,-0.411C0.17,-0.411 0.158,-0.406 0.149,-0.397C0.139,-0.387 0.135,-0.372 0.135,-0.353L0.135,-0.154Z" style="fill:rgb(90,65,65);fill-rule:nonzero;"/>
            </g>
            <g transform="matrix(12,0,0,12,102.783,219.033)">
                <path d="M0.042,0L0.012,-0.712L0.144,-0.712L0.144,-0.461L0.146,-0.461C0.157,-0.478 0.171,-0.491 0.187,-0.5C0.202,-0.509 0.22,-0.513 0.24,-0.513C0.265,-0.513 0.284,-0.509 0.298,-0.5C0.311,-0.491 0.322,-0.48 0.331,-0.467C0.338,-0.456 0.342,-0.442 0.344,-0.425C0.346,-0.408 0.347,-0.381 0.347,-0.344L0.347,-0.151C0.347,-0.123 0.346,-0.101 0.343,-0.084C0.34,-0.067 0.336,-0.053 0.33,-0.042C0.313,-0.01 0.283,0.006 0.241,0.006C0.216,0.006 0.196,0.001 0.183,-0.009C0.17,-0.019 0.157,-0.031 0.144,-0.046L0.144,0L0.042,0ZM0.245,-0.351C0.245,-0.367 0.242,-0.381 0.235,-0.393C0.228,-0.405 0.214,-0.411 0.195,-0.411C0.18,-0.411 0.168,-0.406 0.159,-0.396C0.149,-0.385 0.144,-0.372 0.144,-0.356L0.144,-0.159C0.144,-0.14 0.149,-0.125 0.158,-0.114C0.167,-0.102 0.18,-0.096 0.195,-0.096C0.212,-0.096 0.225,-0.102 0.233,-0.115C0.241,-0.128 0.245,-0.144 0.245,-0.165L0.245,-0.351Z" style="fill:rgb(90,65,65);fill-rule:nonzero;"/>
            </g>
            <g transform="matrix(12,0,0,12,107.451,219.033)">
                <path d="M0.285,-0.712L0.285,-0.168C0.285,-0.119 0.27,-0.079 0.239,-0.046C0.224,-0.03 0.206,-0.017 0.185,-0.008C0.164,0.001 0.139,0.006 0.111,0.006C0.078,0.006 0.051,-0.001 0.03,-0.016C0.008,-0.03 -0.009,-0.044 -0.022,-0.058L0.058,-0.122C0.065,-0.115 0.074,-0.109 0.084,-0.104C0.093,-0.098 0.103,-0.096 0.114,-0.096C0.12,-0.096 0.127,-0.097 0.135,-0.1C0.143,-0.102 0.151,-0.106 0.158,-0.113C0.165,-0.119 0.171,-0.128 0.176,-0.139C0.181,-0.15 0.183,-0.164 0.183,-0.182L0.153,-0.712L0.285,-0.712Z" style="fill:rgb(90,65,65);fill-rule:nonzero;"/>
            </g>
            <g transform="matrix(12,0,0,12,111.447,219.033)">
                <path d="M0.378,-0.507L0.276,-0.507L0.276,-0.53C0.276,-0.553 0.271,-0.574 0.26,-0.591C0.249,-0.608 0.23,-0.616 0.204,-0.616C0.19,-0.616 0.179,-0.613 0.17,-0.608C0.161,-0.603 0.154,-0.596 0.149,-0.588C0.144,-0.579 0.14,-0.57 0.138,-0.559C0.136,-0.548 0.135,-0.536 0.135,-0.524C0.135,-0.51 0.136,-0.498 0.137,-0.489C0.138,-0.48 0.14,-0.471 0.144,-0.464C0.148,-0.457 0.154,-0.45 0.162,-0.445C0.169,-0.44 0.18,-0.434 0.193,-0.429L0.271,-0.398C0.294,-0.389 0.312,-0.379 0.326,-0.368C0.34,-0.356 0.351,-0.342 0.359,-0.327C0.366,-0.311 0.371,-0.293 0.374,-0.273C0.377,-0.252 0.378,-0.229 0.378,-0.203C0.378,-0.173 0.375,-0.145 0.369,-0.12C0.363,-0.094 0.353,-0.072 0.34,-0.054C0.326,-0.035 0.308,-0.021 0.285,-0.01C0.262,0.001 0.235,0.006 0.202,0.006C0.177,0.006 0.154,0.002 0.133,-0.007C0.112,-0.016 0.093,-0.028 0.078,-0.043C0.063,-0.058 0.05,-0.076 0.042,-0.097C0.033,-0.117 0.028,-0.139 0.028,-0.163L0.028,-0.201L0.13,-0.201L0.13,-0.169C0.13,-0.15 0.135,-0.134 0.147,-0.119C0.158,-0.103 0.176,-0.096 0.202,-0.096C0.219,-0.096 0.233,-0.098 0.243,-0.104C0.252,-0.109 0.26,-0.116 0.265,-0.125C0.27,-0.134 0.274,-0.146 0.275,-0.159C0.276,-0.171 0.276,-0.186 0.276,-0.202C0.276,-0.221 0.275,-0.236 0.274,-0.248C0.273,-0.26 0.27,-0.27 0.266,-0.277C0.261,-0.284 0.255,-0.29 0.248,-0.295C0.24,-0.3 0.23,-0.305 0.217,-0.31L0.144,-0.34C0.1,-0.358 0.07,-0.382 0.056,-0.412C0.041,-0.441 0.033,-0.478 0.033,-0.523C0.033,-0.55 0.037,-0.575 0.044,-0.599C0.051,-0.623 0.062,-0.644 0.077,-0.661C0.091,-0.678 0.109,-0.692 0.131,-0.703C0.152,-0.713 0.178,-0.718 0.208,-0.718C0.233,-0.718 0.257,-0.713 0.278,-0.704C0.299,-0.695 0.317,-0.682 0.332,-0.667C0.363,-0.635 0.378,-0.598 0.378,-0.557L0.378,-0.507Z" style="fill:rgb(90,65,65);fill-rule:nonzero;"/>
            </g>
        </g>
    </g>
</svg>
