<?xml version="1.0" encoding="UTF-8" standalone="no"?>
<svg
   version="1.1"
   width="15"
   height="31"
   viewBox="0 0 6.818182 14.090909"
   xml:space="preserve"
   id="svg14"
   sodipodi:docname="trash.svg"
   inkscape:version="1.1 (c68e22c387, 2021-05-23)"
   xmlns:inkscape="http://www.inkscape.org/namespaces/inkscape"
   xmlns:sodipodi="http://sodipodi.sourceforge.net/DTD/sodipodi-0.dtd"
   xmlns="http://www.w3.org/2000/svg"
   xmlns:svg="http://www.w3.org/2000/svg"><sodipodi:namedview
   id="namedview16"
   pagecolor="#505050"
   bordercolor="#ffffff"
   borderopacity="1"
   inkscape:pageshadow="0"
   inkscape:pageopacity="0"
   inkscape:pagecheckerboard="true"
   showgrid="false"
   inkscape:zoom="8"
   inkscape:cx="16.6875"
   inkscape:cy="23.0625"
   inkscape:window-width="1600"
   inkscape:window-height="847"
   inkscape:window-x="-8"
   inkscape:window-y="22"
   inkscape:window-maximized="1"
   inkscape:current-layer="svg14"
   inkscape:snap-page="true"
   showguides="false"><inkscape:grid
     type="xygrid"
     id="grid206" /></sodipodi:namedview>
<desc
   id="desc2">Created with Fabric.js 3.6.3</desc>
<defs
   id="defs4">
</defs>
<g
   transform="translate(6,7)"
   id="g8">

</g>

<path
   style="fill:#ffffff;fill-rule:evenodd;stroke:none;stroke-width:0.619835;stroke-linecap:butt;stroke-linejoin:miter;stroke-miterlimit:4;stroke-dasharray:none;stroke-dashoffset:0"
   d="M 4.9586781,4.256198 H 6.818182 V 4.8760328 H 6.1983477 V 10.454545 L 5.5785128,11.074381 H 1.2396696 L 0.61983478,10.454545 V 4.8760328 H 0 V 4.256198 H 1.8595042 V 3.6363634 A 0.61983477,0.61983477 0 0 1 2.479339,3.0165286 H 4.3388434 A 0.61983477,0.61983477 0 0 1 4.9586781,3.6363634 Z M 4.3388434,3.6363634 H 2.479339 V 4.256198 H 4.3388434 Z M 1.2396696,10.454545 H 5.5785128 V 4.8760328 H 1.2396696 Z M 2.479339,5.4958675 H 1.8595042 V 9.8347109 H 2.479339 Z m 0.6198348,0 H 3.7190086 V 9.8347109 H 3.0991738 Z m 1.2396696,0 H 4.9586781 V 9.8347109 H 4.3388434 Z"
   stroke-linecap="round"
   id="path6" /></svg>
